<?xml version="1.0" standalone="no"?>
<!DOCTYPE svg PUBLIC "-//W3C//DTD SVG 20010904//EN"
 "http://www.w3.org/TR/2001/REC-SVG-20010904/DTD/svg10.dtd">
<svg version="1.0" xmlns="http://www.w3.org/2000/svg"
 width="1890.000000pt" height="1890.000000pt" viewBox="0 0 1890.000000 1890.000000"
 preserveAspectRatio="xMidYMid meet">
<metadata>
Created by potrace 1.14, written by Peter Selinger 2001-2017
</metadata>
<g transform="translate(0.000000,1890.000000) scale(0.100000,-0.100000)"
fill="#000000" stroke="none">
<path d="M7335 14134 c-386 -56 -681 -172 -995 -391 -87 -61 -180 -142 -286
-247 -289 -290 -479 -632 -573 -1036 -48 -207 -51 -275 -51 -1390 1 -575 3
-1333 7 -1685 4 -421 2 -726 -6 -890 -6 -145 -11 -624 -11 -1140 0 -822 2
-980 15 -1090 2 -22 7 -59 10 -83 2 -24 7 -47 10 -51 2 -5 7 -26 11 -47 5 -33
52 -186 71 -234 4 -8 7 -17 8 -20 1 -5 20 -47 50 -110 37 -81 136 -236 179
-282 15 -15 26 -32 26 -37 0 -17 269 -281 286 -281 8 0 17 -6 20 -14 3 -8 24
-27 47 -42 67 -45 251 -154 260 -154 5 0 34 -12 65 -26 75 -35 152 -65 177
-68 11 -1 30 -8 43 -15 12 -6 22 -9 22 -5 0 3 7 1 15 -6 8 -6 18 -9 23 -6 5 3
20 -1 34 -8 26 -14 122 -32 146 -27 6 1 12 -2 12 -6 0 -10 -154 -10 2230 -10
2258 0 2357 1 2387 20 6 4 18 4 27 1 9 -3 16 -1 16 6 0 6 8 10 18 9 9 -2 26 0
37 4 11 3 33 8 49 11 16 3 77 17 135 32 58 14 113 28 121 29 8 2 17 4 20 6 3
1 10 3 15 4 6 1 23 7 38 13 16 7 34 12 42 12 8 0 16 4 20 9 5 9 101 46 120 46
6 0 12 2 15 5 13 13 70 40 84 40 9 0 16 5 16 10 0 6 5 10 10 10 16 0 101 42
146 72 23 15 44 28 47 28 3 0 63 43 134 97 139 105 256 205 312 268 20 22 45
49 56 60 28 30 164 201 201 255 73 105 142 227 199 355 79 177 102 239 150
415 70 258 95 463 95 785 0 330 -24 522 -101 800 -147 537 -465 1006 -894
1321 -91 66 -85 63 -215 138 -187 108 -373 186 -587 245 -24 7 -43 14 -43 17
0 8 33 57 88 128 29 39 78 111 108 160 30 50 59 98 65 106 7 12 93 194 139
295 36 80 49 115 55 150 4 22 13 54 20 70 17 40 50 184 77 330 18 104 21 159
22 410 1 318 -9 414 -69 650 -110 433 -364 881 -681 1199 -41 42 -199 182
-244 217 -30 23 -57 45 -60 48 -3 3 -13 11 -22 16 -9 6 -50 33 -90 60 -40 28
-82 55 -93 61 -11 6 -48 28 -83 48 -59 35 -286 146 -299 146 -3 0 -65 22 -137
49 -183 68 -312 99 -546 131 -138 19 -208 20 -1380 22 -1217 3 -1237 3 -1385
-18z"/>
</g>
</svg>
